# xmcd CD database file
#
# Track frame offsets:
#	150
#	104862
#	212356
#
# Disc length: 3916 seconds
#
# Revision: 0
# Processed by: cddbd v1.5.1PL0 Copyright (c) Steve Scherf et al.
# Submitted via: CDex 1.51
#
DISCID=250f4a03
DTITLE=Benjamin Hatton - VV Summer Mix 2005
DYEAR=2005
DGENRE=Jazz
TTITLE0=Part 1
TTITLE1=Part 2
TTITLE2=Part 3
EXTD=YEAR: 2005
EXTT0=
EXTT1=
EXTT2=
PLAYORDER=
